<?xml version="1.0" standalone="no"?>
<svg viewBox="0 0 200 200" xmlns="http://www.w3.org/2000/svg">
  <path fill="#FFA800" d="M41.6,-55.4C52.2,-49.6,57.7,-35.1,65.5,-19.3C73.4,-3.5,83.5,13.4,80.1,26.6C76.7,39.8,59.6,49.2,44,58.8C28.4,68.4,14.2,78.1,-0.3,78.5C-14.8,78.9,-29.6,70,-39.9,58.7C-50.1,47.4,-55.8,33.7,-59.8,19.8C-63.8,5.9,-66,-8.1,-64.8,-23.9C-63.6,-39.7,-58.9,-57.2,-47.5,-62.6C-36.2,-68.1,-18.1,-61.5,-1.3,-59.8C15.5,-58,31.1,-61.1,41.6,-55.4Z" transform="translate(100 100)" />
</svg>
